<?xml version="1.0" standalone="no"?>
<!DOCTYPE svg PUBLIC "-//W3C//DTD SVG 20010904//EN"
 "http://www.w3.org/TR/2001/REC-SVG-20010904/DTD/svg10.dtd">
<svg version="1.0" xmlns="http://www.w3.org/2000/svg"
 viewBox="0 0 1272.000000 350.000000"
 preserveAspectRatio="xMidYMid meet">

<g transform="translate(0.000000,350.000000) scale(0.100000,-0.100000)"
fill="#000000" stroke="none">
<path d="M0 1750 l0 -1750 6360 0 6360 0 0 1750 0 1750 -4946 0 -4946 0 -86
-75 c-85 -73 -192 -185 -263 -275 -45 -56 -140 -196 -158 -232 -14 -27 -51
-39 -51 -17 0 6 14 45 30 87 55 136 174 346 257 452 l43 55 -102 3 c-56 1
-107 1 -113 -2 -27 -10 -197 -310 -245 -431 -13 -33 -28 -64 -32 -70 -11 -13
-10 42 1 79 6 17 14 56 19 86 15 85 60 241 86 303 l16 37 -1115 0 -1115 0 0
-1750z m8316 1488 c-3 -13 -20 -79 -37 -148 -17 -69 -40 -161 -51 -205 -50
-200 -67 -274 -68 -297 0 -17 16 -18 200 -18 l200 0 6 28 c3 15 9 36 12 47 7
24 5 16 37 140 14 55 34 138 45 185 10 47 30 128 43 180 l24 95 168 3 c93 1
174 1 181 -2 10 -4 -2 -64 -72 -351 -32 -130 -45 -183 -63 -265 -10 -47 -39
-164 -64 -260 -24 -96 -56 -229 -71 -295 -15 -66 -31 -129 -36 -140 -7 -16
-53 -209 -64 -265 -5 -24 -17 -73 -27 -107 l-10 -32 -169 2 c-92 1 -172 5
-176 9 -8 9 12 110 57 278 6 25 13 54 15 65 2 11 10 45 19 75 9 30 22 84 30
120 7 36 25 110 39 165 14 55 26 114 28 130 l3 30 -194 3 c-112 1 -199 -2
-204 -7 -5 -5 -13 -27 -18 -48 -5 -21 -15 -65 -23 -98 -32 -130 -56 -233 -67
-285 -6 -30 -14 -64 -19 -75 -11 -27 -80 -317 -80 -337 0 -12 -14 -16 -62 -20
-82 -6 -295 -4 -302 2 -3 3 0 23 5 45 6 22 14 60 20 85 5 25 13 56 18 70 5 14
21 77 36 140 15 63 40 169 57 235 38 151 51 208 76 320 11 50 39 162 62 250
23 88 48 194 57 235 8 41 18 84 23 95 14 34 20 84 10 90 -5 3 -44 -11 -87 -32
-132 -65 -221 -167 -268 -313 -22 -66 -27 -252 -7 -272 39 -39 -18 -50 -104
-22 -69 24 -99 48 -118 94 -22 55 -21 158 2 218 78 204 350 386 682 456 105
22 113 23 219 25 92 1 93 1 87 -21z m-6646 -5 c-1 -10 -8 -47 -16 -83 -9 -36
-21 -90 -28 -120 -7 -30 -15 -62 -18 -70 -7 -16 -54 -209 -62 -250 -4 -25 -38
-162 -56 -230 -33 -123 -40 -152 -54 -215 -20 -91 -38 -164 -74 -305 -52 -202
-84 -347 -80 -365 2 -13 23 -24 70 -36 37 -10 131 -48 210 -85 288 -133 393
-171 525 -187 89 -10 225 -1 276 18 24 10 22 -14 -9 -109 -47 -139 -141 -226
-245 -226 -89 0 -249 65 -376 151 -23 16 -45 29 -49 29 -4 0 -17 8 -28 19 -24
22 -214 151 -222 151 -3 0 -24 13 -47 29 -63 42 -203 106 -277 125 -36 9 -98
20 -137 23 -64 5 -73 8 -73 26 0 21 29 147 86 372 20 77 40 158 45 180 21 97
95 397 109 445 6 19 18 67 26 105 20 93 35 153 77 315 20 74 33 138 31 142
-17 28 -142 -33 -223 -108 -128 -118 -193 -334 -147 -487 14 -47 14 -47 -9
-47 -97 0 -182 49 -216 125 -63 137 47 345 252 481 79 52 232 125 314 149 101
29 246 53 338 54 77 1 87 -1 87 -16z m9286 -79 c18 -9 49 -34 69 -55 32 -36
35 -44 35 -101 0 -76 -29 -119 -104 -154 -66 -31 -119 -30 -182 1 -54 27 -84
60 -104 116 -23 65 25 153 105 190 50 23 136 24 181 3z m-4696 -348 c139 -27
298 -107 351 -176 13 -18 29 -37 34 -43 6 -7 21 -38 34 -69 20 -49 22 -70 19
-160 -5 -134 -31 -194 -108 -248 -32 -23 -44 -25 -145 -25 -103 0 -113 2 -159
29 l-49 28 46 39 c88 76 135 223 107 340 -16 66 -83 138 -146 157 -55 16 -205
15 -276 -2 -117 -27 -238 -128 -294 -243 -26 -53 -29 -68 -29 -168 0 -105 2
-113 33 -175 69 -139 191 -256 349 -337 92 -47 116 -63 94 -63 -23 0 -232
-101 -262 -126 -8 -8 -19 -14 -23 -14 -16 0 -153 -110 -188 -152 -21 -23 -49
-56 -63 -73 -31 -36 -75 -122 -75 -146 0 -10 -6 -19 -12 -21 -17 -6 -18 -264
-1 -299 6 -13 21 -46 33 -72 30 -64 130 -161 205 -198 83 -40 207 -57 311 -41
237 37 422 173 528 389 30 61 100 254 93 258 -7 5 -155 25 -228 31 -158 12
-347 -44 -407 -121 -43 -54 -41 -20 4 66 100 193 257 299 534 359 54 12 306 8
440 -6 72 -7 242 26 306 61 27 15 61 40 77 56 l27 29 0 -28 c0 -38 -43 -121
-91 -175 -89 -102 -255 -200 -389 -231 -41 -10 -82 -20 -91 -22 -13 -4 -69
-122 -69 -146 0 -4 -12 -33 -26 -65 -98 -220 -174 -341 -284 -453 -213 -218
-437 -299 -825 -300 -216 0 -348 28 -483 101 -130 69 -219 159 -291 292 -45
83 -54 126 -58 277 -4 131 -3 139 28 230 48 144 117 242 244 346 93 75 210
135 319 164 119 32 120 33 36 84 -232 143 -335 331 -303 552 39 274 332 489
718 528 77 8 331 -3 405 -18z m-2468 -94 c55 -32 73 -127 57 -297 -27 -273
-155 -564 -308 -700 -19 -16 -46 -41 -60 -54 -51 -46 -174 -99 -272 -116 -80
-14 -105 -15 -167 -4 -130 22 -222 98 -238 199 -13 75 -5 132 39 300 14 53 29
119 33 148 4 29 11 55 15 58 14 8 11 44 -3 43 -7 0 -62 -13 -123 -28 l-110
-27 -7 -45 c-15 -102 -30 -156 -65 -239 -97 -228 -268 -374 -471 -401 -219
-29 -400 41 -465 181 -33 71 -35 266 -4 385 3 11 17 52 32 90 121 322 354 505
641 505 124 0 184 -19 248 -80 52 -49 78 -102 90 -182 18 -119 12 -108 65
-108 50 0 187 32 202 47 5 5 13 29 19 53 27 128 52 224 59 239 6 11 22 16 53
15 23 -1 103 -2 177 -3 l133 -1 -6 -27 c-4 -16 -11 -48 -16 -72 -6 -25 -14
-59 -20 -75 -10 -32 -66 -265 -95 -396 -9 -41 -21 -86 -26 -100 -16 -46 -39
-161 -39 -194 0 -51 38 -80 103 -80 169 1 325 202 432 553 9 30 19 95 22 144
6 86 5 90 -13 83 -10 -5 -35 -10 -55 -13 -31 -5 -39 -1 -67 31 -50 58 -41 135
21 168 57 30 137 30 189 0z m983 -35 c79 -43 95 -75 95 -185 0 -76 -4 -101
-25 -148 -27 -61 -117 -157 -195 -210 -82 -54 -239 -108 -340 -116 l-35 -3 -3
-93 c-5 -158 25 -193 170 -200 184 -9 283 32 450 185 34 31 54 42 70 39 13 -3
27 -5 31 -5 13 -1 -49 -77 -128 -157 -64 -65 -100 -93 -189 -148 -62 -38 -183
-78 -282 -92 -89 -13 -111 -13 -192 0 -140 22 -207 64 -275 169 -30 46 -42
175 -28 290 7 55 16 107 20 116 5 9 16 41 26 71 81 255 252 435 475 500 51 15
91 19 185 17 110 -2 124 -5 170 -30z m4967 9 c70 -15 109 -37 129 -73 20 -36
37 -27 45 22 l6 45 179 0 179 0 0 -22 c0 -13 -5 -39 -10 -58 -24 -96 -82 -330
-90 -365 -15 -68 -29 -129 -40 -165 -25 -89 -50 -211 -50 -248 0 -60 32 -93
96 -99 88 -9 161 37 208 131 25 49 83 249 106 366 5 25 16 72 24 105 27 106
45 178 61 250 8 39 18 78 21 88 5 15 23 17 185 17 l180 0 -6 -37 c-4 -21 -11
-49 -16 -63 -5 -14 -13 -45 -18 -70 -6 -25 -17 -72 -26 -105 -8 -33 -24 -98
-34 -145 -10 -47 -32 -137 -49 -202 -62 -234 -62 -280 -1 -310 74 -38 152 -17
230 61 73 73 82 94 129 296 10 44 25 107 34 140 57 232 72 292 88 373 l13 62
183 0 183 0 -7 -37 c-4 -21 -11 -46 -15 -55 -12 -23 -11 -48 2 -48 7 0 35 17
63 37 92 66 172 97 251 98 63 0 74 -3 109 -30 89 -68 87 -201 -3 -262 -26 -18
-48 -23 -95 -23 -34 0 -68 6 -77 13 -9 7 -25 37 -35 67 l-20 55 -52 3 c-42 2
-62 -2 -102 -24 -27 -15 -58 -36 -69 -48 -18 -20 -44 -107 -76 -256 -8 -36
-21 -92 -29 -125 -8 -33 -35 -150 -61 -260 -26 -110 -51 -210 -56 -222 -8 -22
-14 -23 -121 -25 -62 0 -141 -2 -175 -2 -71 -1 -72 0 -52 80 6 25 9 47 6 51
-3 3 -28 -10 -54 -30 -77 -56 -118 -76 -206 -98 -106 -28 -195 -22 -267 17
-53 29 -98 78 -109 122 -11 41 -31 37 -91 -19 -134 -126 -337 -172 -471 -106
-57 28 -88 65 -110 132 -7 22 -14 42 -16 44 -1 2 -35 -27 -74 -63 -142 -131
-291 -174 -440 -126 -73 24 -152 83 -176 131 -46 93 -48 104 -48 219 0 110 24
249 46 275 5 5 9 16 9 25 0 9 22 61 50 115 102 207 272 342 476 378 44 8 81
15 84 16 3 0 35 -5 72 -13z m335 -1367 c17 -17 4 -39 -23 -39 -26 0 -32 18
-12 38 15 15 21 15 35 1z m320 -54 c-6 -39 2 -43 49 -25 40 16 74 -10 74 -55
0 -20 -4 -43 -9 -53 -5 -9 -12 -25 -15 -34 -3 -10 -12 -15 -23 -12 -15 4 -18
15 -18 62 0 57 0 57 -30 57 -33 0 -55 -30 -55 -78 0 -19 -7 -30 -22 -36 -13
-5 -27 -5 -31 -1 -5 4 -1 43 8 86 9 44 18 89 21 102 3 16 11 22 30 22 25 0 26
-2 21 -35z m-2874 11 c9 -7 17 -18 17 -25 0 -14 -46 -15 -55 -1 -8 14 -38 13
-53 -2 -13 -13 11 -39 56 -57 15 -6 33 -21 41 -33 11 -18 10 -23 -11 -44 -32
-31 -124 -37 -152 -8 -36 35 0 47 52 17 25 -14 32 -15 46 -4 25 21 20 30 -28
51 -76 32 -90 80 -31 109 29 14 97 13 118 -3z m1301 -11 c4 -14 11 -25 16 -25
6 0 10 -7 10 -15 0 -8 -8 -15 -19 -15 -28 0 -40 -69 -15 -87 24 -18 6 -36 -32
-31 -28 3 -29 6 -32 58 -2 30 -8 60 -13 66 -7 9 -4 16 10 23 11 6 23 20 26 31
9 29 41 25 49 -5z m367 -35 c17 -33 38 -60 45 -60 8 0 15 21 20 60 6 58 8 60
35 60 34 0 33 1 15 -70 -7 -30 -17 -72 -20 -93 -7 -36 -9 -38 -39 -35 -26 2
-36 12 -62 55 -16 29 -34 51 -40 50 -5 -2 -14 -26 -19 -54 -6 -36 -14 -53 -26
-56 -31 -8 -39 5 -30 48 5 22 14 62 19 88 13 62 17 67 46 67 19 0 30 -12 56
-60z m1634 23 c-19 -116 -22 -133 -17 -138 3 -3 21 -5 39 -5 19 0 32 -4 29 -9
-8 -13 -60 -21 -98 -15 -34 6 -35 6 -27 48 30 157 30 156 56 156 23 0 24 -3
18 -37z m-2793 -26 c4 -7 8 -29 8 -50 0 -46 -35 -86 -77 -88 -28 -1 -33 -1
-65 8 -14 4 -18 -1 -18 -20 0 -40 -21 -77 -43 -77 -22 0 -21 11 6 150 16 84
22 93 61 87 17 -3 40 -2 51 3 24 11 67 3 77 -13z m236 7 c33 -23 31 -86 -4
-121 -23 -23 -31 -25 -78 -20 l-53 5 -9 -46 c-8 -40 -13 -47 -35 -50 -26 -3
-26 -2 -19 35 26 126 40 198 40 202 0 2 17 1 38 -2 20 -3 46 -1 57 3 29 13 38
12 63 -6z m217 2 c19 -8 36 -21 37 -28 0 -7 2 -20 3 -28 2 -23 -23 -68 -44
-80 -31 -16 -112 -12 -133 7 -50 45 8 132 95 142 4 1 23 -6 42 -13z m1038 -18
c25 -30 21 -66 -12 -99 -26 -25 -37 -29 -85 -29 -48 0 -58 3 -72 25 -20 31
-12 68 22 100 43 39 114 41 147 3z m707 17 c44 -23 37 -36 -14 -29 -62 9 -69
-11 -11 -36 52 -22 64 -43 42 -68 -13 -14 -27 -16 -73 -12 -35 3 -59 10 -62
18 -3 11 6 12 42 7 42 -7 46 -5 46 13 0 15 -9 22 -32 27 -37 8 -48 20 -48 52
0 14 9 25 28 31 38 15 49 14 82 -3z m872 -12 c27 -24 22 -68 -10 -105 -24 -26
-36 -31 -73 -31 -60 0 -89 17 -89 51 0 54 12 74 54 93 45 21 89 18 118 -8z
m470 -6 c31 -38 19 -52 -47 -55 -81 -3 -89 -7 -75 -32 10 -18 17 -20 63 -15
48 6 51 5 33 -9 -24 -19 -116 -22 -134 -4 -16 16 -15 80 2 103 33 46 125 52
158 12z m-3912 7 c0 -8 -5 -24 -11 -36 -14 -25 -4 -64 17 -72 29 -11 59 19 73
73 11 44 16 51 38 51 18 0 24 -4 20 -14 -3 -8 -9 -42 -13 -75 -6 -60 -14 -70
-49 -61 -5 2 -37 2 -70 1 -51 -1 -62 2 -73 19 -9 15 -10 26 -2 40 5 10 10 32
10 48 0 35 6 42 37 42 14 0 23 -6 23 -16z m1040 -5 c0 -10 -13 -20 -32 -25
-26 -8 -34 -18 -48 -59 -9 -28 -20 -49 -23 -47 -4 1 -13 2 -21 2 -16 0 -14 36
5 112 l10 37 54 -2 c43 -2 55 -6 55 -18z m950 14 c0 -5 -4 -25 -9 -46 -7 -30
-5 -42 9 -59 15 -19 21 -21 42 -11 19 8 27 24 37 67 11 50 15 56 38 56 24 0
24 -2 18 -42 -4 -24 -12 -58 -18 -76 -11 -31 -14 -33 -47 -29 -19 2 -46 1 -60
-3 -61 -17 -86 23 -67 105 9 38 14 45 34 45 13 0 23 -3 23 -7z m253 -5 c3 -10
10 -10 30 1 15 8 30 12 33 8 13 -13 -6 -35 -34 -42 -31 -6 -52 -39 -52 -79 0
-26 -21 -39 -45 -30 -17 7 -19 17 -6 42 6 9 13 38 16 65 5 41 9 47 30 47 13 0
25 -6 28 -12z m164 -5 c-4 -15 -10 -43 -22 -108 -1 -5 -3 -15 -3 -21 -1 -6
-12 -11 -24 -10 -20 1 -23 6 -21 36 2 19 8 54 14 78 10 35 16 42 36 42 18 0
23 -4 20 -17z m1167 -5 c3 -13 6 -37 6 -55 0 -54 19 -48 48 16 23 52 31 60 55
61 l27 0 -31 -57 c-18 -32 -40 -66 -49 -76 -18 -19 -75 -26 -90 -11 -4 5 -11
39 -15 77 -7 67 -7 67 18 67 17 0 26 -7 31 -22z m-2300 -113 c-4 -8 -17 -15
-30 -15 -15 0 -24 6 -24 15 0 10 10 15 30 15 22 0 28 -4 24 -15z m1684 3 c-7
-20 -58 -23 -58 -4 0 11 10 16 31 16 20 0 29 -4 27 -12z"/>
<path d="M7733 2088 c-13 -17 -127 -487 -120 -494 7 -8 138 -13 189 -8 63 7
65 10 87 114 6 25 17 72 26 105 26 99 56 238 58 265 l2 25 -116 3 c-85 2 -119
-1 -126 -10z"/>
<path d="M8498 2073 c-6 -16 -16 -53 -24 -83 -32 -136 -73 -307 -91 -377 -5
-20 -1 -23 23 -24 48 -3 218 2 225 6 3 3 14 39 24 82 10 43 27 112 37 153 21
81 58 248 58 262 0 4 -54 8 -120 8 l-120 0 -12 -27z"/>
<path d="M1082 2063 c-7 -21 -21 -74 -32 -118 -10 -44 -35 -145 -54 -225 -45
-182 -45 -180 -2 -180 68 0 231 -49 321 -96 68 -36 98 -55 300 -189 296 -198
374 -235 490 -235 62 0 68 2 108 40 43 39 97 132 97 167 0 17 -12 18 -148 18
-138 1 -153 3 -250 33 -101 32 -139 48 -317 132 -49 23 -124 56 -165 72 -73
30 -89 35 -178 58 -36 9 -41 14 -37 33 2 12 29 123 60 246 30 123 55 237 55
253 l0 28 -118 0 -119 0 -11 -37z"/>
<path d="M5206 2091 c-8 -12 22 -76 61 -131 67 -96 153 -161 317 -240 61 -29
85 -45 75 -50 -8 -5 -50 -13 -94 -20 -151 -22 -273 -67 -393 -147 -144 -96
-252 -246 -296 -414 -19 -73 -18 -234 3 -324 43 -190 215 -358 435 -427 122
-38 212 -45 436 -36 320 12 514 94 697 293 80 87 179 241 229 357 20 46 42 97
49 113 7 17 25 64 39 105 l25 75 88 21 c116 27 194 60 279 117 74 50 152 123
142 133 -4 3 -33 -2 -65 -13 -52 -16 -89 -18 -337 -15 -222 2 -297 -1 -364
-13 -46 -9 -91 -20 -100 -25 -10 -5 -42 -20 -74 -33 -89 -39 -232 -156 -214
-175 3 -2 43 3 89 13 85 18 156 18 410 -1 l89 -7 -7 -36 c-8 -46 -34 -131 -46
-153 -5 -10 -9 -23 -9 -29 0 -26 -97 -200 -144 -258 -163 -203 -424 -306 -671
-266 -92 15 -119 25 -196 76 -236 158 -303 444 -162 698 73 132 243 280 431
376 39 20 74 41 77 45 3 5 -5 14 -17 21 -140 74 -281 204 -338 312 l-35 67
-202 0 c-111 0 -204 -4 -207 -9z"/>
<path d="M2280 2572 c-57 -28 -112 -93 -167 -198 -94 -181 -132 -345 -117
-504 8 -88 34 -123 101 -134 92 -16 170 36 247 163 39 63 91 210 99 282 6 41
4 47 -18 59 -57 31 -57 120 1 178 37 37 41 56 20 106 -27 64 -94 84 -166 48z"/>
<path d="M1690 2074 c-6 -14 -10 -37 -10 -50 0 -14 -5 -45 -11 -70 -9 -35 -8
-60 5 -126 9 -45 22 -89 28 -97 80 -108 157 -141 321 -141 106 0 183 19 253
61 60 36 179 156 204 205 8 16 22 40 31 54 20 31 59 143 59 170 0 17 -7 20
-45 20 -44 0 -44 0 -59 -47 -51 -171 -149 -306 -251 -349 -86 -36 -209 -3
-250 67 -18 30 -20 52 -20 182 l0 147 -123 0 c-122 0 -123 0 -132 -26z"/>
<path d="M2905 2088 c-14 -42 -55 -251 -55 -279 1 -172 115 -245 340 -218 198
24 363 157 479 385 41 81 52 112 42 119 -19 11 -39 -8 -61 -57 -36 -79 -116
-192 -171 -242 -119 -107 -271 -129 -340 -50 -26 31 -38 79 -29 116 26 96 50
220 45 229 -10 15 -245 12 -250 -3z"/>
<path d="M4533 2579 c-45 -29 -119 -130 -160 -217 -41 -87 -73 -185 -73 -220
0 -24 1 -25 56 -18 78 9 146 47 224 125 81 79 110 145 110 247 0 92 -9 104
-73 104 -35 0 -62 -7 -84 -21z"/>
<path d="M3963 2073 c-5 -16 -8 -91 -8 -168 l0 -140 36 -55 c47 -73 116 -109
229 -121 142 -14 277 9 393 67 45 23 66 51 30 40 -122 -36 -253 -34 -330 5
-38 19 -53 35 -73 74 -23 47 -25 59 -23 188 l2 137 -124 0 -125 0 -7 -27z"/>
<path d="M9685 2550 c-82 -32 -153 -112 -213 -240 -54 -117 -60 -134 -77 -219
-20 -95 -17 -260 4 -299 17 -31 69 -62 106 -62 85 0 187 71 220 152 19 49 58
192 85 318 10 47 26 112 35 145 39 139 31 183 -39 209 -52 20 -59 20 -121 -4z"/>
<path d="M9079 2078 c-7 -13 -14 -78 -17 -146 -6 -163 10 -223 79 -287 120
-112 349 -96 474 35 l30 32 -30 -9 c-16 -4 -64 -8 -105 -8 -89 0 -127 21 -163
88 -20 38 -22 55 -20 180 l1 137 -119 0 c-112 0 -119 -1 -130 -22z"/>
<path d="M9842 2088 c-17 -21 -52 -177 -52 -231 0 -79 20 -179 43 -213 35 -52
78 -69 176 -68 104 1 151 13 216 56 l50 33 -71 5 c-80 7 -115 24 -144 73 -27
44 -25 107 6 233 14 57 22 109 19 114 -9 15 -230 13 -243 -2z"/>
<path d="M10506 2028 c-9 -40 -26 -99 -37 -130 -19 -51 -20 -63 -9 -127 27
-163 121 -221 310 -192 41 7 94 21 117 32 44 21 142 106 108 93 -11 -4 -52 -9
-90 -12 -87 -5 -136 13 -165 60 -27 44 -25 90 9 223 15 61 26 113 24 118 -2 4
-59 7 -127 7 l-123 0 -17 -72z"/>
<path d="M11220 2058 c-5 -24 -21 -83 -34 -133 -14 -49 -30 -119 -36 -155 -6
-36 -18 -89 -27 -118 -8 -30 -13 -55 -11 -57 7 -8 153 -12 202 -6 47 6 50 8
58 41 5 19 13 51 18 70 15 55 78 321 85 363 l7 37 -126 0 -125 0 -11 -42z"/>
<path d="M7924 1202 c-6 -4 -16 -17 -22 -29 -15 -28 9 -55 47 -51 36 4 54 54
26 74 -21 16 -35 17 -51 6z"/>
<path d="M8168 1198 c-24 -19 -31 -53 -14 -67 22 -19 59 -9 73 18 22 46 -19
80 -59 49z"/>
<path d="M8399 1189 c-38 -38 -4 -84 45 -61 28 13 35 49 14 70 -17 17 -35 15
-59 -9z"/>
<path d="M9411 1184 c-25 -32 -14 -64 23 -64 31 0 48 22 44 57 -4 39 -39 43
-67 7z"/>
<path d="M11004 1202 c-6 -4 -16 -17 -22 -29 -10 -17 -9 -25 4 -37 32 -33 74
-13 74 35 0 32 -30 49 -56 31z"/>
<path d="M11465 1199 c-4 -6 -1 -15 6 -20 20 -13 54 -6 54 11 0 18 -50 26 -60
9z"/>
</g>
</svg>
